<!DOCTYPE svg PUBLIC "-//W3C//DTD SVG 1.1//EN" "http://www.w3.org/Graphics/SVG/1.1/DTD/svg11.dtd">
<!-- Uploaded to: SVG Repo, www.svgrepo.com, Transformed by: SVG Repo Mixer Tools -->
<svg fill="#383838" width="80px" height="80px" viewBox="-3.79 0 33.564 33.564" xmlns="http://www.w3.org/2000/svg">
<g id="SVGRepo_bgCarrier" stroke-width="0"/>
<g id="SVGRepo_tracerCarrier" stroke-linecap="round" stroke-linejoin="round"/>
<g id="SVGRepo_iconCarrier"> <g transform="translate(-291.484 -256.287)"> <path d="M304.462,289.851a12.976,12.976,0,0,1-5.163-24.882l.789,1.838a11,11,0,1,0,7.782-.364l.613-1.9a12.971,12.971,0,0,1-4.021,25.312Z"/> <path d="M299.7,266.884a1,1,0,0,1-1-1v-9.6h10.486v9.2a1,1,0,0,1-2,0v-7.2H300.7v7.6A1,1,0,0,1,299.7,266.884Z"/> <path d="M293.753,280.571l-1.689-1.072c.159-.251,3.989-6.123,13.419-4.129,8.031,1.7,10.357.191,10.379.177l1.225,1.58c-.276.222-2.959,2.12-12.018.2C297.054,275.623,293.883,280.368,293.753,280.571Z"/> </g> </g>
</svg>